<svg xmlns="http://www.w3.org/2000/svg" viewBox="0 0 600 600" role="img" aria-labelledby="title">
  <title id="title">STELLIGHT ツアーパーカーのプレースホルダ</title>
  <defs><linearGradient id="bg" x1="0" y1="0" x2="1" y2="1"><stop stop-color="#cfddfa"/><stop offset=".5" stop-color="#c2b3ef"/><stop offset="1" stop-color="#f0c9e6"/></linearGradient><linearGradient id="cloth" x1="0" y1="0" x2="1" y2="1"><stop stop-color="#a7bdf0"/><stop offset="1" stop-color="#796db9"/></linearGradient><filter id="sh"><feDropShadow dx="0" dy="18" stdDeviation="17" flood-color="#51417d" flood-opacity=".24"/></filter></defs>
  <rect width="600" height="600" fill="url(#bg)"/><g fill="#fff" opacity=".8"><text x="74" y="100" font-size="39">✦</text><text x="487" y="121" font-size="26">✧</text></g>
  <g filter="url(#sh)"><path d="M226 87h148l89 90-76 70-21-24v241H234V223l-21 24-76-70z" fill="url(#cloth)" stroke="#fff" stroke-width="12" stroke-linejoin="round"/><path d="M245 93q55 92 110 0" fill="#e3dcf8" stroke="#fff" stroke-width="7"/><path d="M300 178v191" stroke="#d9d3f4" stroke-width="5"/><path d="M260 338h80v78h-80z" fill="#8c80c7" stroke="#d8d2f4" stroke-width="4"/><path d="M266 337l34 28 34-28" fill="none" stroke="#d8d2f4" stroke-width="4"/><text x="300" y="273" fill="#fff" font-family="sans-serif" font-size="24" font-weight="700" text-anchor="middle">STELLIGHT</text><text x="300" y="300" fill="#e9e5fb" font-family="sans-serif" font-size="12" text-anchor="middle" letter-spacing="4">JAPAN TOUR</text></g>
  <rect x="75" y="505" width="450" height="67" rx="34" fill="#fff" opacity=".91"/><text x="300" y="547" fill="#554a7d" font-family="sans-serif" font-size="22" font-weight="700" text-anchor="middle">ツアーパーカー</text>
</svg>
